<svg width="239" height="44" viewBox="0 0 239 44" fill="none" xmlns="http://www.w3.org/2000/svg">
    <mask id="mask0" mask-type="alpha" maskUnits="userSpaceOnUse" x="0" y="0" width="37" height="31">
        <path d="M0 0.000488281H36.2879V30.7408H0V0.000488281Z" fill="white"/>
    </mask>
    <g mask="url(#mask0)">
        <path fill-rule="evenodd" clip-rule="evenodd" d="M36.2881 3.22284C30.8771 11.0628 17.2421 30.7408 17.2421 30.7408L0.671111 7.27584C0.671111 7.27584 -0.838889 5.10784 0.671111 2.64884C0.671111 2.64884 1.16811 1.55684 2.46811 0.771842C3.10211 0.389842 3.92811 0.0798416 4.98011 0.00484157C4.98011 0.00484157 6.35111 -0.106158 8.50011 0.792842C8.50011 0.792842 18.8461 4.99484 36.2881 3.22284Z" fill="#FFDD00"/>
    </g>
    <mask id="mask1" mask-type="alpha" maskUnits="userSpaceOnUse" x="17" y="0" width="40" height="44">
        <path d="M17.1035 0.0385742H56.8927V43.8068H17.1035V0.0385742Z" fill="white"/>
    </mask>
    <g mask="url(#mask1)">
        <path fill-rule="evenodd" clip-rule="evenodd" d="M52.1235 0.0426966C52.1235 0.0426966 52.8485 0.0526966 53.7255 0.334697C54.7055 0.647697 55.8055 1.2747 56.4365 2.6477C56.4365 2.6477 57.6575 4.8867 56.1045 7.2747L32.8815 41.3157C32.8815 41.3157 31.4865 43.5557 28.8615 43.8007C28.8615 43.8007 26.3105 44.0787 24.5875 40.9847L17.1035 30.5447C17.1035 30.5447 30.7735 11.0717 36.2885 3.2227C36.2885 3.2227 44.5735 2.0847 50.1235 0.397697C50.1235 0.397697 51.4545 -0.00630342 52.1235 0.0426966Z" fill="#73CBF2"/>
    </g>
    <path fill-rule="evenodd" clip-rule="evenodd" d="M28.6874 43.8039L11.2454 43.7989C10.6274 43.7709 10.1354 43.4449 10.1354 43.4449C9.00935 42.3279 9.76935 41.1219 9.76935 41.1219C9.76935 41.1219 14.7164 33.9569 17.1044 30.5449L25.9704 42.5079C25.9704 42.5079 26.7974 43.7579 28.6874 43.8039Z" fill="#F27264"/>
    <path fill-rule="evenodd" clip-rule="evenodd" d="M89.9512 12.0239H91.9722L81.9592 35.6409C81.0162 37.8409 78.9512 42.5549 73.8772 42.5549C72.7102 42.5549 71.2732 42.2849 70.0612 41.8809V40.0409C71.1392 40.5339 72.5752 40.8049 73.7432 40.8049C76.0322 40.8049 78.1422 39.5019 79.6692 36.0889L80.4322 34.3839L69.9712 12.0239H72.0362L81.4202 32.3629L89.9512 12.0239Z" fill="black"/>
    <path fill-rule="evenodd" clip-rule="evenodd" d="M89.9512 12.0239H91.9722L81.9592 35.6409C81.0162 37.8409 78.9512 42.5549 73.8772 42.5549C72.7102 42.5549 71.2732 42.2849 70.0612 41.8809V40.0409C71.1392 40.5339 72.5752 40.8049 73.7432 40.8049C76.0322 40.8049 78.1422 39.5019 79.6692 36.0889L80.4322 34.3839L69.9712 12.0239H72.0362L81.4202 32.3629L89.9512 12.0239Z" stroke="#231F20" stroke-width="2"/>
    <path fill-rule="evenodd" clip-rule="evenodd" d="M96.4197 21.8562H114.065C113.885 16.9172 110.294 13.1902 105.399 13.1902C100.505 13.1902 96.6437 17.0072 96.4197 21.8562ZM115.816 23.4272H96.4637C96.8237 28.3222 100.595 31.8242 105.444 31.8242C108.946 31.8242 111.955 29.9822 113.437 27.1992L115.008 27.9622C113.302 31.2852 109.575 33.4402 105.355 33.4402C99.2027 33.4402 94.5337 28.8152 94.5337 22.5302C94.5337 16.2432 99.2027 11.5742 105.444 11.5742C111.505 11.5742 115.905 16.0192 115.905 22.1262C115.905 22.6192 115.861 23.1592 115.816 23.4272Z" fill="black"/>
    <path fill-rule="evenodd" clip-rule="evenodd" d="M96.4197 21.8562H114.065C113.885 16.9172 110.294 13.1902 105.399 13.1902C100.505 13.1902 96.6437 17.0072 96.4197 21.8562ZM115.816 23.4272H96.4637C96.8237 28.3222 100.595 31.8242 105.444 31.8242C108.946 31.8242 111.955 29.9822 113.437 27.1992L115.008 27.9622C113.302 31.2852 109.575 33.4402 105.355 33.4402C99.2027 33.4402 94.5337 28.8152 94.5337 22.5302C94.5337 16.2432 99.2027 11.5742 105.444 11.5742C111.505 11.5742 115.905 16.0192 115.905 22.1262C115.905 22.6192 115.861 23.1592 115.816 23.4272Z" stroke="#231F20" stroke-width="2"/>
    <mask id="mask2" mask-type="alpha" maskUnits="userSpaceOnUse" x="0" y="0" width="239" height="44">
        <path d="M0 43.807H238.016V0H0V43.807Z" fill="white"/>
    </mask>
    <g mask="url(#mask2)">
        <path fill-rule="evenodd" clip-rule="evenodd" d="M121.791 32.9911H123.631V1.51709H121.791V32.9911Z" fill="black"/>
        <path fill-rule="evenodd" clip-rule="evenodd" d="M121.791 32.9911H123.631V1.51709H121.791V32.9911Z" stroke="#231F20" stroke-width="2"/>
        <path fill-rule="evenodd" clip-rule="evenodd" d="M131.355 32.9911H133.196V1.51709H131.355V32.9911Z" fill="black"/>
        <path fill-rule="evenodd" clip-rule="evenodd" d="M131.355 32.9911H133.196V1.51709H131.355V32.9911Z" stroke="#231F20" stroke-width="2"/>
        <path fill-rule="evenodd" clip-rule="evenodd" d="M159.059 22.5303C159.059 17.2313 155.153 13.2813 150.034 13.2813C144.871 13.2813 140.964 17.2313 140.964 22.5303C140.964 27.7833 144.871 31.7343 150.034 31.7343C155.153 31.7343 159.059 27.7373 159.059 22.5303ZM139.079 22.5303C139.079 16.2883 143.747 11.5293 149.989 11.5293C156.276 11.5293 160.945 16.2883 160.945 22.5303C160.945 28.8153 156.231 33.4403 149.989 33.4403C143.793 33.4403 139.079 28.7703 139.079 22.5303Z" fill="black"/>
        <path fill-rule="evenodd" clip-rule="evenodd" d="M159.059 22.5303C159.059 17.2313 155.153 13.2813 150.034 13.2813C144.871 13.2813 140.964 17.2313 140.964 22.5303C140.964 27.7833 144.871 31.7343 150.034 31.7343C155.153 31.7343 159.059 27.7373 159.059 22.5303ZM139.079 22.5303C139.079 16.2883 143.747 11.5293 149.989 11.5293C156.276 11.5293 160.945 16.2883 160.945 22.5303C160.945 28.8153 156.231 33.4403 149.989 33.4403C143.793 33.4403 139.079 28.7703 139.079 22.5303Z" stroke="#231F20" stroke-width="2"/>
        <path fill-rule="evenodd" clip-rule="evenodd" d="M194.622 12.0239H196.688L188.382 32.9909H186.676L180.3 14.3579L173.834 32.9909H172.128L163.821 12.0239H165.887L172.981 30.5229L179.402 12.0239H181.152L187.573 30.5229L194.622 12.0239Z" fill="black"/>
        <path fill-rule="evenodd" clip-rule="evenodd" d="M194.622 12.0239H196.688L188.382 32.9909H186.676L180.3 14.3579L173.834 32.9909H172.128L163.821 12.0239H165.887L172.981 30.5229L179.402 12.0239H181.152L187.573 30.5229L194.622 12.0239Z" stroke="#231F20" stroke-width="2"/>
        <path fill-rule="evenodd" clip-rule="evenodd" d="M198.084 31.9578C198.084 31.1048 198.803 30.3418 199.746 30.3418C200.599 30.3418 201.317 31.0608 201.317 31.9578C201.317 32.9008 200.599 33.5748 199.746 33.5748C198.803 33.5748 198.084 32.9008 198.084 31.9578Z" fill="black"/>
        <path fill-rule="evenodd" clip-rule="evenodd" d="M198.084 31.9578C198.084 31.1048 198.803 30.3418 199.746 30.3418C200.599 30.3418 201.317 31.0608 201.317 31.9578C201.317 32.9008 200.599 33.5748 199.746 33.5748C198.803 33.5748 198.084 32.9008 198.084 31.9578Z" stroke="#231F20" stroke-width="2"/>
        <path fill-rule="evenodd" clip-rule="evenodd" d="M224.799 22.3952C224.799 17.2312 220.983 13.2812 215.998 13.2812C211.015 13.2812 207.244 17.2762 207.244 22.5302C207.244 27.7832 210.97 31.7342 215.953 31.7342C220.983 31.7342 224.799 27.6932 224.799 22.3952ZM224.843 12.0242H226.685V32.9912H224.843V28.0082C223.093 31.2852 219.815 33.4402 215.775 33.4402C209.803 33.4402 205.313 28.7702 205.313 22.5302C205.313 16.2442 209.847 11.5752 215.82 11.5752C219.86 11.5752 223.138 13.7292 224.843 16.9622V12.0242Z" fill="black"/>
        <path fill-rule="evenodd" clip-rule="evenodd" d="M224.799 22.3952C224.799 17.2312 220.983 13.2812 215.998 13.2812C211.015 13.2812 207.244 17.2762 207.244 22.5302C207.244 27.7832 210.97 31.7342 215.953 31.7342C220.983 31.7342 224.799 27.6932 224.799 22.3952ZM224.843 12.0242H226.685V32.9912H224.843V28.0082C223.093 31.2852 219.815 33.4402 215.775 33.4402C209.803 33.4402 205.313 28.7702 205.313 22.5302C205.313 16.2442 209.847 11.5752 215.82 11.5752C219.86 11.5752 223.138 13.7292 224.843 16.9622V12.0242Z" stroke="#231F20" stroke-width="2"/>
        <path fill-rule="evenodd" clip-rule="evenodd" d="M234.367 32.9911H236.253V12.0241H234.367V32.9911ZM233.558 6.32213C233.558 5.42313 234.277 4.66113 235.264 4.66113C236.298 4.66113 237.016 5.42313 237.016 6.32213C237.016 7.30913 236.298 8.07213 235.264 8.07213C234.277 8.07213 233.558 7.30913 233.558 6.32213Z" fill="black"/>
        <path fill-rule="evenodd" clip-rule="evenodd" d="M234.367 32.9911H236.253V12.0241H234.367V32.9911ZM233.558 6.32213C233.558 5.42313 234.277 4.66113 235.264 4.66113C236.298 4.66113 237.016 5.42313 237.016 6.32213C237.016 7.30913 236.298 8.07213 235.264 8.07213C234.277 8.07213 233.558 7.30913 233.558 6.32213Z" stroke="#231F20" stroke-width="2"/>
    </g>
</svg>
